Exo 2-Italic.ufo
<glyph name="quotedbl" format="2">
  <advance width="350.17647"/>
  <unicode hex="0022"/>
  <outline>
    <contour>
      <point x="337" y="690" type="line"/>
      <point x="268" y="690" type="line"/>
      <point x="243" y="475" type="line"/>
      <point x="302" y="475" type="line"/>
    </contour>
    <contour>
      <point x="193" y="690" type="line"/>
      <point x="124" y="690" type="line"/>
      <point x="99" y="475" type="line"/>
      <point x="157" y="475" type="line"/>
    </contour>
  </outline>
</glyph>
<glyph name="quotesingle" format="2">
  <advance width="206.4"/>
  <unicode hex="0027"/>
  <outline>
    <contour>
      <point x="193" y="690" type="line"/>
      <point x="124" y="690" type="line"/>
      <point x="99" y="475" type="line"/>
      <point x="157" y="475" type="line"/>
    </contour>
  </outline>
</glyph>
<glyph name="hyphen" format="2">
  <advance width="446.71765"/>
  <unicode hex="002D"/>
  <outline>
    <contour>
      <point x="374" y="285" type="line"/>
      <point x="70" y="285" type="line"/>
      <point x="61" y="220" type="line"/>
      <point x="366" y="220" type="line"/>
    </contour>
  </outline>
</glyph>
<glyph name="slash" format="2">
  <advance width="523.98824"/>
  <unicode hex="002F"/>
  <outline>
    <contour>
      <point x="551" y="690" type="line"/>
      <point x="478" y="690" type="line"/>
      <point x="-21" y="-66" type="line"/>
      <point x="52" y="-66" type="line"/>
    </contour>
  </outline>
</glyph>
<glyph name="greater" format="2">
  <advance width="526.24706"/>
  <unicode hex="003E"/>
  <outline>
    <contour>
      <point x="99" y="506" type="line"/>
      <point x="89" y="440" type="line"/>
      <point x="402" y="302" type="line"/>
      <point x="50" y="165" type="line"/>
      <point x="41" y="93" type="line"/>
      <point x="471" y="264" type="line"/>
      <point x="481" y="332" type="line"/>
    </contour>
  </outline>
</glyph>
<glyph name="backslash" format="2">
  <advance width="508.25882"/>
  <unicode hex="005C"/>
  <outline>
    <contour>
      <point x="146" y="690" type="line"/>
      <point x="79" y="690" type="line"/>
      <point x="368" y="-66" type="line"/>
      <point x="435" y="-66" type="line"/>
    </contour>
  </outline>
</glyph>
<glyph name="l" format="2">
  <advance width="292.71765"/>
  <unicode hex="006C"/>
  <anchor x="151" y="-1" name="bottom"/>
  <anchor x="188" y="756" name="top"/>
  <anchor x="311" y="644" name="topright"/>
  <outline>
    <contour>
      <point x="140" y="132" type="curve" smooth="yes"/>
      <point x="220" y="700" type="line"/>
      <point x="135" y="700" type="line"/>
      <point x="53" y="117" type="line" smooth="yes"/>
      <point x="42" y="37"/>
      <point x="84" y="-9"/>
      <point x="159" y="-9" type="curve" smooth="yes"/>
      <point x="181" y="-9"/>
      <point x="228" y="-5"/>
      <point x="247" y="3" type="curve"/>
      <point x="244" y="69" type="line"/>
      <point x="195" y="69" type="line" smooth="yes"/>
      <point x="149" y="69"/>
      <point x="133" y="86"/>
    </contour>
  </outline>
</glyph>
<glyph name="bar" format="2">
  <advance width="244.67059"/>
  <unicode hex="007C"/>
  <outline>
    <contour>
      <point x="222" y="781" type="line"/>
      <point x="159" y="781" type="line"/>
      <point x="26" y="-169" type="line"/>
      <point x="89" y="-169" type="line"/>
    </contour>
  </outline>
</glyph>
<glyph name="brokenbar" format="2">
  <advance width="245.4"/>
  <unicode hex="00A6"/>
  <outline>
    <contour>
      <point x="222" y="781" type="line"/>
      <point x="160" y="781" type="line"/>
      <point x="103" y="381" type="line"/>
      <point x="166" y="381" type="line"/>
    </contour>
    <contour>
      <point x="145" y="231" type="line"/>
      <point x="82" y="231" type="line"/>
      <point x="26" y="-169" type="line"/>
      <point x="89" y="-169" type="line"/>
    </contour>
  </outline>
</glyph>
<glyph name="logicalnot" format="2">
  <advance width="586.62353"/>
  <unicode hex="00AC"/>
  <outline>
    <contour>
      <point x="515" y="330" type="line"/>
      <point x="77" y="330" type="line"/>
      <point x="68" y="265" type="line"/>
      <point x="505" y="265" type="line"/>
    </contour>
    <contour>
      <point x="515" y="330" type="line"/>
      <point x="449" y="322" type="line"/>
      <point x="422" y="133" type="line"/>
      <point x="487" y="133" type="line"/>
    </contour>
  </outline>
</glyph>
<glyph name="multiply" format="2">
  <advance width="524.54118"/>
  <unicode hex="00D7"/>
  <outline>
    <contour>
      <point x="445" y="477" type="line"/>
      <point x="42" y="157" type="line"/>
      <point x="81" y="102" type="line"/>
      <point x="484" y="422" type="line"/>
    </contour>
    <contour>
      <point x="130" y="471" type="line"/>
      <point x="83" y="424" type="line"/>
      <point x="392" y="104" type="line"/>
      <point x="438" y="151" type="line"/>
    </contour>
  </outline>
</glyph>
<glyph name="oslash" format="2">
  <advance width="564.29412"/>
  <unicode hex="00F8"/>
  <anchor x="240" y="-13" name="bottom"/>
  <anchor x="318" y="554" name="top"/>
  <outline>
    <contour>
      <point x="449" y="563" type="line"/>
      <point x="76" y="-53" type="line"/>
      <point x="113" y="-75" type="line"/>
      <point x="487" y="541" type="line"/>
    </contour>
    <component base="o"/>
  </outline>
</glyph>
<glyph name="Hbar" format="2">
  <advance width="666.48235"/>
  <unicode hex="0126"/>
  <outline>
    <contour>
      <point x="692" y="566" type="line"/>
      <point x="58" y="566" type="line"/>
      <point x="51" y="519" type="line"/>
      <point x="686" y="519" type="line"/>
    </contour>
    <component base="H"/>
  </outline>
</glyph>
<glyph name="tbar" format="2">
  <advance width="377.47059"/>
  <unicode hex="0167"/>
  <outline>
    <contour>
      <point x="333" y="310" type="line"/>
      <point x="49" y="310" type="line"/>
      <point x="43" y="261" type="line"/>
      <point x="326" y="261" type="line"/>
    </contour>
    <component base="t"/>
  </outline>
</glyph>
<glyph name="uni02B9" format="2">
  <advance width="267.25882"/>
  <unicode hex="02B9"/>
  <anchor x="195" y="544" name="_top"/>
  <outline>
    <contour>
      <point x="273" y="754" type="line"/>
      <point x="204" y="754" type="line"/>
      <point x="114" y="539" type="line"/>
      <point x="169" y="539" type="line"/>
    </contour>
  </outline>
</glyph>
<glyph name="uni02C8" format="2">
  <advance width="211.85882"/>
  <unicode hex="02C8"/>
  <anchor x="147" y="552" name="_top"/>
  <outline>
    <contour>
      <point x="183" y="574" type="line"/>
      <point x="205" y="698" type="line"/>
      <point x="140" y="698" type="line"/>
      <point x="117" y="574" type="line"/>
    </contour>
  </outline>
</glyph>
<glyph name="uni02CA" format="2">
  <advance width="314.2"/>
  <unicode hex="02CA"/>
  <anchor x="163" y="544" name="_top"/>
  <outline>
    <contour>
      <point x="293" y="724" type="line"/>
      <point x="101" y="577" type="line"/>
      <point x="127" y="538" type="line"/>
      <point x="334" y="658" type="line"/>
    </contour>
  </outline>
</glyph>
<glyph name="gravecomb" format="2">
  <advance width="0"/>
  <unicode hex="0300"/>
  <anchor x="242" y="544" name="_top"/>
  <outline>
    <contour>
      <point x="264" y="538" type="line"/>
      <point x="295" y="576" type="line"/>
      <point x="125" y="723" type="line"/>
      <point x="79" y="663" type="line"/>
    </contour>
  </outline>
</glyph>
<glyph name="acutecomb" format="2">
  <advance width="0"/>
  <unicode hex="0301"/>
  <anchor x="-155" y="544" name="_top"/>
  <outline>
    <contour>
      <point x="-25" y="724" type="line"/>
      <point x="-217" y="577" type="line"/>
      <point x="-191" y="538" type="line"/>
      <point x="16" y="658" type="line"/>
    </contour>
  </outline>
</glyph>
<glyph name="uni0302" format="2">
  <advance width="0"/>
  <unicode hex="0302"/>
  <anchor x="-173" y="551" name="_top"/>
  <outline>
    <contour>
      <point x="-122" y="713" type="line"/>
      <point x="-183" y="713" type="line"/>
      <point x="-331" y="586" type="line"/>
      <point x="-306" y="548" type="line"/>
      <point x="-158" y="648" type="line"/>
      <point x="-149" y="648" type="line"/>
      <point x="-30" y="547" type="line"/>
      <point x="2" y="580" type="line"/>
    </contour>
  </outline>
</glyph>
<glyph name="uni0304" format="2">
  <advance width="0"/>
  <unicode hex="0304"/>
  <anchor x="-168" y="557" name="_top"/>
  <outline>
    <contour>
      <point x="-13" y="672" type="line"/>
      <point x="-292" y="672" type="line"/>
      <point x="-301" y="609" type="line"/>
      <point x="-22" y="609" type="line"/>
    </contour>
  </outline>
</glyph>
<glyph name="uni0306" format="2">
  <advance width="0"/>
  <unicode hex="0306"/>
  <anchor x="-148" y="547" name="_top"/>
  <outline>
    <contour>
      <point x="21" y="688" type="curve"/>
      <point x="-22" y="698" type="line"/>
      <point x="-28" y="651"/>
      <point x="-73" y="621"/>
      <point x="-142" y="621" type="curve" smooth="yes"/>
      <point x="-205" y="621"/>
      <point x="-241" y="647"/>
      <point x="-234" y="695" type="curve"/>
      <point x="-278" y="691" type="line"/>
      <point x="-294" y="614"/>
      <point x="-241" y="558"/>
      <point x="-142" y="558" type="curve" smooth="yes"/>
      <point x="-48" y="558"/>
      <point x="15" y="610"/>
    </contour>
  </outline>
</glyph>
<glyph name="hookabovecomb" format="2">
  <advance width="0"/>
  <unicode hex="0309"/>
  <anchor x="-107" y="544" name="_top"/>
  <outline>
    <contour>
      <point x="-132" y="594" type="curve"/>
      <point x="-129" y="552" type="line"/>
      <point x="-47" y="563"/>
      <point x="3" y="619"/>
      <point x="3" y="685" type="curve" smooth="yes"/>
      <point x="3" y="747"/>
      <point x="-50" y="772"/>
      <point x="-126" y="749" type="curve"/>
      <point x="-124" y="701" type="line"/>
      <point x="-81" y="714"/>
      <point x="-57" y="706"/>
      <point x="-57" y="674" type="curve" smooth="yes"/>
      <point x="-57" y="637"/>
      <point x="-78" y="605"/>
    </contour>
  </outline>
</glyph>
<glyph name="uni030B" format="2">
  <advance width="0"/>
  <unicode hex="030B"/>
  <anchor x="-227" y="544" name="_top"/>
  <outline>
    <contour>
      <point x="-218" y="729" type="line"/>
      <point x="-357" y="560" type="line"/>
      <point x="-321" y="532" type="line"/>
      <point x="-166" y="691" type="line"/>
    </contour>
    <contour>
      <point x="-54" y="729" type="line"/>
      <point x="-192" y="560" type="line"/>
      <point x="-157" y="532" type="line"/>
      <point x="-2" y="691" type="line"/>
    </contour>
  </outline>
</glyph>
<glyph name="uni030F" format="2">
  <advance width="0"/>
  <unicode hex="030F"/>
  <anchor x="-143" y="544" name="_top"/>
  <outline>
    <contour>
      <point x="-151" y="729" type="line"/>
      <point x="-204" y="691" type="line"/>
      <point x="-49" y="532" type="line"/>
      <point x="-13" y="560" type="line"/>
    </contour>
    <contour>
      <point x="-315" y="729" type="line"/>
      <point x="-368" y="691" type="line"/>
      <point x="-213" y="532" type="line"/>
      <point x="-178" y="560" type="line"/>
    </contour>
  </outline>
</glyph>
<glyph name="uni0326" format="2">
  <advance width="0"/>
  <unicode hex="0326"/>
  <anchor x="54" y="-12" name="bottom"/>
  <outline>
    <contour>
      <point x="64" y="-59" type="curve" smooth="yes"/>
      <point x="40" y="-59" type="line" smooth="yes"/>
      <point x="15" y="-59"/>
      <point x="9" y="-65"/>
      <point x="4" y="-85" type="curve" smooth="yes"/>
      <point x="-3" y="-135" type="line" smooth="yes"/>
      <point x="-5" y="-150"/>
      <point x="4" y="-160"/>
      <point x="21" y="-158" type="curve"/>
      <point x="13" y="-199"/>
      <point x="3" y="-227"/>
      <point x="-9" y="-261" type="curve"/>
      <point x="29" y="-274" type="line"/>
      <point x="54" y="-234"/>
      <point x="74" y="-185"/>
      <point x="80" y="-142" type="curve" smooth="yes"/>
      <point x="88" y="-87" type="line" smooth="yes"/>
      <point x="92" y="-66"/>
      <point x="84" y="-59"/>
    </contour>
  </outline>
</glyph>
<glyph name="uni0328" format="2">
  <advance width="0"/>
  <unicode hex="0328"/>
  <anchor x="-110" y="0" name="_ogonek"/>
  <outline>
    <contour>
      <point x="-110" y="0" type="curve"/>
      <point x="-150" y="3" type="line"/>
      <point x="-212" y="-42"/>
      <point x="-244" y="-82"/>
      <point x="-261" y="-114" type="curve" smooth="yes"/>
      <point x="-296" y="-185"/>
      <point x="-253" y="-246"/>
      <point x="-120" y="-194" type="curve"/>
      <point x="-130" y="-157" type="line"/>
      <point x="-196" y="-178"/>
      <point x="-225" y="-165"/>
      <point x="-198" y="-117" type="curve" smooth="yes"/>
      <point x="-172" y="-71"/>
      <point x="-143" y="-35"/>
    </contour>
  </outline>
</glyph>
<glyph name="uni032E" format="2">
  <advance width="0"/>
  <unicode hex="032E"/>
  <anchor x="-229" y="0" name="_bottom"/>
  <outline>
    <contour>
      <point x="-82" y="-49" type="curve"/>
      <point x="-125" y="-39" type="line"/>
      <point x="-131" y="-87"/>
      <point x="-177" y="-116"/>
      <point x="-246" y="-116" type="curve" smooth="yes"/>
      <point x="-308" y="-116"/>
      <point x="-344" y="-90"/>
      <point x="-338" y="-43" type="curve"/>
      <point x="-382" y="-46" type="line"/>
      <point x="-398" y="-124"/>
      <point x="-345" y="-179"/>
      <point x="-245" y="-179" type="curve" smooth="yes"/>
      <point x="-151" y="-179"/>
      <point x="-89" y="-127"/>
    </contour>
  </outline>
</glyph>
<glyph name="uni0331" format="2">
  <advance width="0"/>
  <unicode hex="0331"/>
  <anchor x="-242" y="0" name="_bottom"/>
  <outline>
    <contour>
      <point x="-111" y="-78" type="line"/>
      <point x="-390" y="-78" type="line"/>
      <point x="-399" y="-141" type="line"/>
      <point x="-120" y="-141" type="line"/>
    </contour>
  </outline>
</glyph>
<glyph name="uni041D" format="2">
  <advance width="666.48235"/>
  <unicode hex="041D"/>
  <outline>
    <contour>
      <point x="231" y="690" type="line"/>
      <point x="142" y="690" type="line"/>
      <point x="45" y="0" type="line"/>
      <point x="134" y="0" type="line"/>
    </contour>
    <contour>
      <point x="519" y="406" type="line"/>
      <point x="183" y="406" type="line"/>
      <point x="172" y="330" type="line"/>
      <point x="509" y="330" type="line"/>
    </contour>
    <contour>
      <point x="636" y="690" type="line"/>
      <point x="549" y="690" type="line"/>
      <point x="452" y="0" type="line"/>
      <point x="539" y="0" type="line"/>
    </contour>
  </outline>
</glyph>
<glyph name="uni0422" format="2">
  <advance width="573.31765"/>
  <unicode hex="0422"/>
  <outline>
    <contour>
      <point x="386" y="690" type="line"/>
      <point x="298" y="690" type="line"/>
      <point x="201" y="0" type="line"/>
      <point x="289" y="0" type="line"/>
    </contour>
    <contour>
      <point x="608" y="690" type="line"/>
      <point x="76" y="690" type="line"/>
      <point x="65" y="612" type="line"/>
      <point x="598" y="612" type="line"/>
    </contour>
  </outline>
</glyph>
<glyph name="uni0428" format="2">
  <advance width="927.98824"/>
  <unicode hex="0428"/>
  <outline>
    <contour>
      <point x="228" y="690" type="line"/>
      <point x="142" y="690" type="line"/>
      <point x="45" y="0" type="line"/>
      <point x="131" y="0" type="line"/>
    </contour>
    <contour>
      <point x="750" y="72" type="line"/>
      <point x="133" y="72" type="line"/>
      <point x="123" y="0" type="line"/>
      <point x="740" y="0" type="line"/>
    </contour>
    <contour>
      <point x="563" y="690" type="line"/>
      <point x="477" y="690" type="line"/>
      <point x="380" y="0" type="line"/>
      <point x="466" y="0" type="line"/>
    </contour>
    <contour>
      <point x="898" y="690" type="line"/>
      <point x="811" y="690" type="line"/>
      <point x="714" y="0" type="line"/>
      <point x="801" y="0" type="line"/>
    </contour>
  </outline>
</glyph>
<glyph name="uni0429" format="2">
  <advance width="949.22353"/>
  <unicode hex="0429"/>
  <outline>
    <contour>
      <point x="229" y="690" type="line"/>
      <point x="143" y="690" type="line"/>
      <point x="46" y="0" type="line"/>
      <point x="132" y="0" type="line"/>
    </contour>
    <contour>
      <point x="889" y="72" type="line"/>
      <point x="134" y="72" type="line"/>
      <point x="124" y="0" type="line"/>
      <point x="879" y="0" type="line"/>
    </contour>
    <contour>
      <point x="561" y="690" type="line"/>
      <point x="474" y="690" type="line"/>
      <point x="377" y="0" type="line"/>
      <point x="464" y="0" type="line"/>
    </contour>
    <contour>
      <point x="891" y="690" type="line"/>
      <point x="806" y="690" type="line"/>
      <point x="709" y="0" type="line"/>
      <point x="795" y="0" type="line"/>
    </contour>
    <contour>
      <point x="804" y="7" type="line"/>
      <point x="790" y="-151" type="line"/>
      <point x="858" y="-151" type="line"/>
      <point x="879" y="0" type="line"/>
    </contour>
  </outline>
</glyph>
<glyph name="uni0443" format="2">
  <advance width="541.36471"/>
  <unicode hex="0443"/>
  <anchor x="292" y="554" name="top"/>
  <outline>
    <contour>
      <point x="525" y="487" type="curve"/>
      <point x="436" y="487" type="line"/>
      <point x="416" y="372"/>
      <point x="364" y="221"/>
      <point x="304" y="104" type="curve" smooth="yes"/>
      <point x="198" y="-114"/>
      <point x="104" y="-153"/>
      <point x="9" y="-136" type="curve"/>
      <point x="1" y="-206" type="line"/>
      <point x="121" y="-226"/>
      <point x="246" y="-193"/>
      <point x="380" y="79" type="curve" smooth="yes"/>
      <point x="449" y="217"/>
      <point x="503" y="385"/>
    </contour>
    <contour>
      <point x="211" y="86" type="curve" smooth="yes"/>
      <point x="135" y="487" type="line"/>
      <point x="45" y="487" type="line"/>
      <point x="139" y="45" type="line" smooth="yes"/>
      <point x="145" y="18"/>
      <point x="168" y="0"/>
      <point x="196" y="0" type="curve" smooth="yes"/>
      <point x="255" y="0" type="line"/>
      <point x="294" y="67" type="line"/>
      <point x="234" y="67" type="line" smooth="yes"/>
      <point x="222" y="67"/>
      <point x="214" y="74"/>
    </contour>
  </outline>
</glyph>
<glyph name="uni048A" format="2">
  <advance width="689.67059"/>
  <unicode hex="048A"/>
  <outline>
    <contour>
      <point x="491" y="72" type="line"/>
      <point x="480" y="0" type="line"/>
      <point x="579" y="0" type="line"/>
      <point x="520" y="-151" type="line"/>
      <point x="580" y="-151" type="line"/>
      <point x="648" y="1" type="line"/>
      <point x="658" y="72" type="line"/>
    </contour>
    <component base="uni0418"/>
    <component base="uni0306.cy" xOffset="76" yOffset="248"/>
  </outline>
</glyph>
<glyph name="uni048B" format="2">
  <advance width="569.85882"/>
  <unicode hex="048B"/>
  <outline>
    <contour>
      <point x="397" y="68" type="line"/>
      <point x="388" y="0" type="line"/>
      <point x="449" y="0" type="line"/>
      <point x="391" y="-144" type="line"/>
      <point x="451" y="-144" type="line"/>
      <point x="518" y="0" type="line"/>
      <point x="527" y="68" type="line"/>
    </contour>
    <component base="uni0438"/>
    <component base="uni0306.cy" xOffset="-9" yOffset="68"/>
  </outline>
</glyph>
<glyph name="uni048C" format="2">
  <advance width="625.52941"/>
  <unicode hex="048C"/>
  <outline>
    <contour>
      <point x="48" y="513" type="line"/>
      <point x="491" y="513" type="line"/>
      <point x="501" y="578" type="line"/>
      <point x="58" y="578" type="line"/>
    </contour>
    <component base="uni042C" xOffset="42"/>
  </outline>
</glyph>
<glyph name="uni0492" format="2">
  <advance width="536.27059"/>
  <unicode hex="0492"/>
  <outline>
    <contour>
      <point x="2" y="299" type="line"/>
      <point x="416" y="299" type="line"/>
      <point x="425" y="363" type="line"/>
      <point x="11" y="363" type="line"/>
    </contour>
    <component base="uni0413" xOffset="36"/>
  </outline>
</glyph>
<glyph name="uni0495" format="2">
  <advance width="533.50588"/>
  <unicode hex="0495"/>
  <outline>
    <contour>
      <point x="234" y="489" type="curve" smooth="yes"/>
      <point x="163" y="489"/>
      <point x="121" y="452"/>
      <point x="111" y="383" type="curve" smooth="yes"/>
      <point x="57" y="0" type="line"/>
      <point x="141" y="0" type="line"/>
      <point x="193" y="361" type="line" smooth="yes"/>
      <point x="198" y="403"/>
      <point x="218" y="421"/>
      <point x="259" y="421" type="curve" smooth="yes"/>
      <point x="449" y="421" type="line"/>
      <point x="461" y="481" type="line"/>
      <point x="390" y="489"/>
      <point x="310" y="489"/>
    </contour>
    <contour>
      <point x="194" y="-147" type="curve"/>
      <point x="202" y="-208" type="line"/>
      <point x="342" y="-191"/>
      <point x="456" y="-132"/>
      <point x="486" y="78" type="curve" smooth="yes"/>
      <point x="510" y="255"/>
      <point x="433" y="290"/>
      <point x="349" y="290" type="curve" smooth="yes"/>
      <point x="290" y="290"/>
      <point x="226" y="272"/>
      <point x="156" y="224" type="curve"/>
      <point x="155" y="167" type="line"/>
      <point x="219" y="203"/>
      <point x="258" y="218"/>
      <point x="314" y="218" type="curve" smooth="yes"/>
      <point x="377" y="218"/>
      <point x="417" y="200"/>
      <point x="400" y="75" type="curve" smooth="yes"/>
      <point x="379" y="-71"/>
      <point x="318" y="-127"/>
    </contour>
  </outline>
</glyph>
<glyph name="uni0496" format="2">
  <advance width="955.8"/>
  <unicode hex="0496"/>
  <outline>
    <contour>
      <point x="784" y="0" type="line"/>
      <point x="911" y="0" type="line"/>
      <point x="921" y="72" type="line"/>
      <point x="794" y="72" type="line"/>
    </contour>
    <contour>
      <point x="830" y="-151" type="line"/>
      <point x="890" y="-151" type="line"/>
      <point x="912" y="7" type="line"/>
      <point x="843" y="7" type="line"/>
    </contour>
    <component base="uni0416" xOffset="-7"/>
  </outline>
</glyph>
<glyph name="uni0497" format="2">
  <advance width="811.84706"/>
  <unicode hex="0497"/>
  <outline>
    <contour>
      <point x="738" y="68" type="line"/>
      <point x="618" y="68" type="line"/>
      <point x="609" y="0" type="line"/>
      <point x="663" y="0" type="line"/>
      <point x="652" y="-144" type="line"/>
      <point x="708" y="-144" type="line"/>
    </contour>
    <component base="uni0436"/>
  </outline>
</glyph>
<glyph name="uni049B" format="2">
  <advance width="531.96471"/>
  <unicode hex="049B"/>
  <outline>
    <contour>
      <point x="526" y="68" type="line"/>
      <point x="407" y="68" type="line"/>
      <point x="398" y="0" type="line"/>
      <point x="452" y="0" type="line"/>
      <point x="440" y="-144" type="line"/>
      <point x="497" y="-144" type="line"/>
    </contour>
    <component base="uni043A"/>
  </outline>
</glyph>
<glyph name="uni049E" format="2">
  <advance width="643.92941"/>
  <unicode hex="049E"/>
  <outline>
    <contour>
      <point x="51" y="558" type="line"/>
      <point x="401" y="558" type="line"/>
      <point x="410" y="622" type="line"/>
      <point x="60" y="622" type="line"/>
    </contour>
    <component base="uni041A" xOffset="53"/>
  </outline>
</glyph>
<glyph name="uni04A2" format="2">
  <advance width="687.94118"/>
  <unicode hex="04A2"/>
  <outline>
    <contour>
      <point x="638" y="72" type="line"/>
      <point x="466" y="72" type="line"/>
      <point x="456" y="0" type="line"/>
      <point x="627" y="0" type="line"/>
    </contour>
    <contour>
      <point x="628" y="7" type="line"/>
      <point x="559" y="7" type="line"/>
      <point x="546" y="-151" type="line"/>
      <point x="606" y="-151" type="line"/>
    </contour>
    <component base="uni041D" xOffset="3"/>
  </outline>
</glyph>
<glyph name="uni04A7" format="2">
  <advance width="866.32941"/>
  <unicode hex="04A7"/>
  <outline>
    <contour>
      <point x="524" y="-148" type="curve"/>
      <point x="531" y="-209" type="line"/>
      <point x="671" y="-192"/>
      <point x="794" y="-108"/>
      <point x="825" y="120" type="curve" smooth="yes"/>
      <point x="850" y="302"/>
      <point x="773" y="352"/>
      <point x="684" y="352" type="curve" smooth="yes"/>
      <point x="624" y="352"/>
      <point x="555" y="333"/>
      <point x="480" y="283" type="curve"/>
      <point x="479" y="219" type="line"/>
      <point x="545" y="259"/>
      <point x="592" y="277"/>
      <point x="646" y="277" type="curve" smooth="yes"/>
      <point x="718" y="277"/>
      <point x="758" y="246"/>
      <point x="739" y="120" type="curve" smooth="yes"/>
      <point x="713" y="-62"/>
      <point x="643" y="-128"/>
    </contour>
    <component base="uni043F"/>
  </outline>
</glyph>
<glyph name="uni04AC" format="2">
  <advance width="573.31765"/>
  <unicode hex="04AC"/>
  <outline>
    <contour>
      <point x="202" y="0" type="line"/>
      <point x="373" y="0" type="line"/>
      <point x="384" y="72" type="line"/>
      <point x="212" y="72" type="line"/>
    </contour>
    <contour>
      <point x="292" y="-151" type="line"/>
      <point x="352" y="-151" type="line"/>
      <point x="374" y="7" type="line"/>
      <point x="305" y="7" type="line"/>
    </contour>
    <component base="uni0422"/>
  </outline>
</glyph>
<glyph name="uni04B3" format="2">
  <advance width="525.8"/>
  <unicode hex="04B3"/>
  <outline>
    <contour>
      <point x="510" y="68" type="line"/>
      <point x="391" y="68" type="line"/>
      <point x="382" y="0" type="line"/>
      <point x="436" y="0" type="line"/>
      <point x="424" y="-144" type="line"/>
      <point x="481" y="-144" type="line"/>
    </contour>
    <component base="x"/>
  </outline>
</glyph>
<glyph name="uni04BE" format="2">
  <advance width="724.4"/>
  <unicode hex="04BE"/>
  <outline>
    <contour>
      <point x="432" y="7" type="line"/>
      <point x="362" y="7" type="line"/>
      <point x="346" y="-151" type="line"/>
      <point x="406" y="-151" type="line"/>
    </contour>
    <component base="uni04BC"/>
  </outline>
</glyph>
<glyph name="uni04BF" format="2">
  <advance width="625.90588"/>
  <unicode hex="04BF"/>
  <outline>
    <contour>
      <point x="375" y="5" type="line"/>
      <point x="302" y="5" type="line"/>
      <point x="286" y="-165" type="line"/>
      <point x="343" y="-165" type="line"/>
    </contour>
    <component base="uni04BD"/>
  </outline>
</glyph>
<glyph name="uni04C5" format="2">
  <advance width="655.61176"/>
  <unicode hex="04C5"/>
  <outline>
    <contour>
      <point x="438" y="72" type="line"/>
      <point x="427" y="0" type="line"/>
      <point x="526" y="0" type="line"/>
      <point x="467" y="-151" type="line"/>
      <point x="527" y="-151" type="line"/>
      <point x="595" y="1" type="line"/>
      <point x="605" y="72" type="line"/>
    </contour>
    <component base="uni041B" xOffset="-8"/>
  </outline>
</glyph>
<glyph name="uni04C6" format="2">
  <advance width="577.84706"/>
  <unicode hex="04C6"/>
  <outline>
    <contour>
      <point x="370" y="68" type="line"/>
      <point x="360" y="0" type="line"/>
      <point x="440" y="0" type="line"/>
      <point x="382" y="-144" type="line"/>
      <point x="443" y="-144" type="line"/>
      <point x="510" y="0" type="line"/>
      <point x="519" y="68" type="line"/>
    </contour>
    <component base="uni043B"/>
  </outline>
</glyph>
<glyph name="uni04CA" format="2">
  <advance width="579.31765"/>
  <unicode hex="04CA"/>
  <outline>
    <contour>
      <point x="387" y="68" type="line"/>
      <point x="378" y="0" type="line"/>
      <point x="457" y="0" type="line"/>
      <point x="399" y="-144" type="line"/>
      <point x="460" y="-144" type="line"/>
      <point x="527" y="0" type="line"/>
      <point x="536" y="68" type="line"/>
    </contour>
    <component base="uni043D"/>
  </outline>
</glyph>
<glyph name="uni04CB" format="2">
  <advance width="614.67059"/>
  <unicode hex="04CB"/>
  <outline>
    <contour>
      <point x="295" y="72" type="line"/>
      <point x="285" y="0" type="line"/>
      <point x="482" y="0" type="line"/>
      <point x="493" y="72" type="line"/>
    </contour>
    <contour>
      <point x="286" y="7" type="line"/>
      <point x="265" y="-151" type="line"/>
      <point x="326" y="-151" type="line"/>
      <point x="355" y="7" type="line"/>
    </contour>
    <component base="uni0427" xOffset="-12"/>
  </outline>
</glyph>
<glyph name="uni04CE" format="2">
  <advance width="745.52941"/>
  <unicode hex="04CE"/>
  <outline>
    <contour>
      <point x="568" y="68" type="line"/>
      <point x="558" y="0" type="line"/>
      <point x="638" y="0" type="line"/>
      <point x="580" y="-144" type="line"/>
      <point x="641" y="-144" type="line"/>
      <point x="708" y="0" type="line"/>
      <point x="717" y="68" type="line"/>
    </contour>
    <component base="uni043C"/>
  </outline>
</glyph>
<glyph name="uni04E8" format="2">
  <advance width="665.83529"/>
  <unicode hex="04E8"/>
  <anchor x="393" y="734" name="top"/>
  <outline>
    <contour>
      <point x="90" y="311" type="line"/>
      <point x="573" y="311" type="line"/>
      <point x="573" y="372" type="line"/>
      <point x="90" y="372" type="line"/>
    </contour>
    <component base="uni041E"/>
  </outline>
</glyph>
<glyph name="uni04F7" format="2">
  <advance width="518.67059"/>
  <unicode hex="04F7"/>
  <outline>
    <contour>
      <point x="441" y="32" type="line"/>
      <point x="375" y="32" type="line"/>
      <point x="364" y="-117" type="line"/>
      <point x="420" y="-117" type="line"/>
    </contour>
    <component base="uni0433"/>
  </outline>
</glyph>
<glyph name="uni04FA" format="2">
  <advance width="537"/>
  <unicode hex="04FA"/>
  <anchor x="398" y="734" name="top"/>
  <outline>
    <contour>
      <point x="79" y="0" type="line"/>
      <point x="172" y="0" type="line"/>
      <point x="170" y="-16" type="line" smooth="yes"/>
      <point x="160" y="-70"/>
      <point x="124" y="-92"/>
      <point x="58" y="-92" type="curve"/>
      <point x="49" y="-160" type="line"/>
      <point x="166" y="-160"/>
      <point x="231" y="-103"/>
      <point x="244" y="-12" type="curve" smooth="yes"/>
      <point x="256" y="75" type="line"/>
      <point x="91" y="75" type="line"/>
    </contour>
    <component base="uni0492"/>
  </outline>
</glyph>
<glyph name="uni04FB" format="2">
  <advance width="462.07059"/>
  <unicode hex="04FB"/>
  <outline>
    <contour>
      <point x="46" y="-100" type="curve"/>
      <point x="37" y="-160" type="line"/>
      <point x="146" y="-160"/>
      <point x="206" y="-103"/>
      <point x="220" y="-12" type="curve" smooth="yes"/>
      <point x="230" y="60" type="line"/>
      <point x="104" y="60" type="line"/>
      <point x="95" y="0" type="line"/>
      <point x="149" y="0" type="line"/>
      <point x="146" y="-16" type="line" smooth="yes"/>
      <point x="135" y="-75"/>
      <point x="104" y="-100"/>
    </contour>
    <component base="uni0493"/>
  </outline>
</glyph>
<glyph name="uni04FD" format="2">
  <advance width="508.58824"/>
  <unicode hex="04FD"/>
  <outline>
    <contour>
      <point x="217" y="-118" type="curve"/>
      <point x="209" y="-170" type="line"/>
      <point x="372" y="-176"/>
      <point x="428" y="-96"/>
      <point x="442" y="-3" type="curve" smooth="yes"/>
      <point x="452" y="68"/>
      <point x="404" y="135"/>
      <point x="332" y="256" type="curve"/>
      <point x="513" y="487" type="line"/>
      <point x="429" y="487" type="line"/>
      <point x="248" y="252" type="line"/>
      <point x="311" y="148"/>
      <point x="370" y="63"/>
      <point x="361" y="-2" type="curve" smooth="yes"/>
      <point x="351" y="-73"/>
      <point x="314" y="-116"/>
    </contour>
    <contour>
      <point x="-19" y="0" type="line"/>
      <point x="66" y="0" type="line"/>
      <point x="258" y="252" type="line"/>
      <point x="145" y="487" type="line"/>
      <point x="60" y="487" type="line"/>
      <point x="178" y="252" type="line"/>
    </contour>
    <contour>
      <point x="202" y="227" type="line"/>
      <point x="295" y="227" type="line"/>
      <point x="303" y="279" type="line"/>
      <point x="210" y="279" type="line"/>
    </contour>
  </outline>
</glyph>
<glyph name="uni04FF" format="2">
  <advance width="531.25882"/>
  <unicode hex="04FF"/>
  <outline>
    <contour>
      <point x="459" y="281" type="line"/>
      <point x="57" y="281" type="line"/>
      <point x="49" y="224" type="line"/>
      <point x="452" y="224" type="line"/>
    </contour>
    <component base="uni0445"/>
  </outline>
</glyph>
<glyph name="uni0510" format="2">
  <advance width="547"/>
  <unicode hex="0510"/>
  <anchor x="223" y="0" name="bottom"/>
  <anchor x="361.328" y="734" name="top"/>
  <outline>
    <contour>
      <point x="219" y="-8" type="curve" smooth="yes"/>
      <point x="315" y="-8"/>
      <point x="390" y="-1"/>
      <point x="461" y="15" type="curve"/>
      <point x="467" y="78" type="line"/>
      <point x="415" y="72"/>
      <point x="338" y="65"/>
      <point x="253" y="65" type="curve" smooth="yes"/>
      <point x="146" y="65"/>
      <point x="111" y="89"/>
      <point x="124" y="190" type="curve" smooth="yes"/>
      <point x="140" y="295"/>
      <point x="180" y="323"/>
      <point x="289" y="323" type="curve" smooth="yes"/>
      <point x="407" y="323" type="line"/>
      <point x="418" y="392" type="line"/>
      <point x="304" y="392" type="line" smooth="yes"/>
      <point x="207" y="392"/>
      <point x="175" y="418"/>
      <point x="188" y="511" type="curve" smooth="yes"/>
      <point x="201" y="607"/>
      <point x="235" y="626"/>
      <point x="343" y="626" type="curve" smooth="yes"/>
      <point x="422" y="626"/>
      <point x="480" y="619"/>
      <point x="522" y="615" type="curve"/>
      <point x="544" y="682" type="line"/>
      <point x="484" y="694"/>
      <point x="426" y="698"/>
      <point x="357" y="698" type="curve" smooth="yes"/>
      <point x="204" y="698"/>
      <point x="120" y="656"/>
      <point x="101" y="515" type="curve" smooth="yes"/>
      <point x="87" y="417"/>
      <point x="111" y="367"/>
      <point x="194" y="359" type="curve"/>
      <point x="195" y="355" type="line"/>
      <point x="95" y="346"/>
      <point x="47" y="280"/>
      <point x="32" y="169" type="curve" smooth="yes"/>
      <point x="12" y="31"/>
      <point x="58" y="-8"/>
    </contour>
  </outline>
</glyph>
<glyph name="uni0511" format="2">
  <advance width="497"/>
  <unicode hex="0511"/>
  <anchor x="220" y="0" name="bottom"/>
  <anchor x="307.605" y="550" name="top"/>
  <outline>
    <contour>
      <point x="229" y="-9" type="curve" smooth="yes"/>
      <point x="293" y="-9"/>
      <point x="368" y="-5"/>
      <point x="432" y="6" type="curve"/>
      <point x="438" y="71" type="line"/>
      <point x="394" y="67"/>
      <point x="318" y="63"/>
      <point x="255" y="63" type="curve" smooth="yes"/>
      <point x="146" y="63"/>
      <point x="123" y="76"/>
      <point x="133" y="141" type="curve" smooth="yes"/>
      <point x="142" y="201"/>
      <point x="173" y="216"/>
      <point x="268" y="217" type="curve" smooth="yes"/>
      <point x="387" y="219" type="line"/>
      <point x="396" y="279" type="line"/>
      <point x="283" y="280" type="line" smooth="yes"/>
      <point x="193" y="280"/>
      <point x="168" y="298"/>
      <point x="176" y="358" type="curve" smooth="yes"/>
      <point x="183" y="414"/>
      <point x="207" y="424"/>
      <point x="317" y="424" type="curve" smooth="yes"/>
      <point x="372" y="424"/>
      <point x="433" y="420"/>
      <point x="468" y="416" type="curve"/>
      <point x="489" y="480" type="line"/>
      <point x="436" y="494"/>
      <point x="376" y="495"/>
      <point x="337" y="495" type="curve" smooth="yes"/>
      <point x="184" y="495"/>
      <point x="110" y="470"/>
      <point x="94" y="362" type="curve" smooth="yes"/>
      <point x="84" y="292"/>
      <point x="104" y="258"/>
      <point x="182" y="251" type="curve"/>
      <point x="182" y="248" type="line"/>
      <point x="96" y="241"/>
      <point x="53" y="200"/>
      <point x="42" y="117" type="curve" smooth="yes"/>
      <point x="27" y="11"/>
      <point x="80" y="-9"/>
    </contour>
  </outline>
</glyph>
<glyph name="uni0525" format="2">
  <advance width="582.23529"/>
  <unicode hex="0525"/>
  <outline>
    <contour>
      <point x="540" y="68" type="line"/>
      <point x="419" y="68" type="line"/>
      <point x="410" y="0" type="line"/>
      <point x="466" y="0" type="line"/>
      <point x="454" y="-144" type="line"/>
      <point x="510" y="-144" type="line"/>
    </contour>
    <component base="uni043F"/>
  </outline>
</glyph>
<glyph name="uni0526" format="2">
  <advance width="658.8"/>
  <unicode hex="0526"/>
  <outline>
    <contour>
      <point x="625" y="72" type="line"/>
      <point x="457" y="72" type="line"/>
      <point x="446" y="0" type="line"/>
      <point x="615" y="0" type="line"/>
    </contour>
    <contour>
      <point x="616" y="7" type="line"/>
      <point x="547" y="7" type="line"/>
      <point x="534" y="-151" type="line"/>
      <point x="594" y="-151" type="line"/>
    </contour>
    <component base="uni04BA"/>
  </outline>
</glyph>
<glyph name="uni0527" format="2">
  <advance width="577.94118"/>
  <unicode hex="0527"/>
  <outline>
    <contour>
      <point x="530" y="68" type="line"/>
      <point x="411" y="68" type="line"/>
      <point x="402" y="0" type="line"/>
      <point x="456" y="0" type="line"/>
      <point x="444" y="-144" type="line"/>
      <point x="501" y="-144" type="line"/>
    </contour>
    <component base="uni04BB"/>
  </outline>
</glyph>
<glyph name="uni0529" format="2">
  <advance width="589.50588"/>
  <unicode hex="0529"/>
  <outline>
    <contour>
      <point x="-99" y="-110" type="curve"/>
      <point x="-106" y="-168" type="line"/>
      <point x="27" y="-187"/>
      <point x="115" y="-112"/>
      <point x="137" y="41" type="curve" smooth="yes"/>
      <point x="199" y="487" type="line"/>
      <point x="115" y="487" type="line"/>
      <point x="53" y="42" type="line" smooth="yes"/>
      <point x="38" y="-66"/>
      <point x="6" y="-110"/>
    </contour>
    <contour>
      <point x="157" y="226" type="line"/>
      <point x="427" y="226" type="line"/>
      <point x="436" y="291" type="line"/>
      <point x="166" y="291" type="line"/>
    </contour>
    <contour>
      <point x="386" y="0" type="line"/>
      <point x="470" y="0" type="line"/>
      <point x="539" y="487" type="line"/>
      <point x="455" y="487" type="line"/>
    </contour>
  </outline>
</glyph>
<glyph name="uni052E" format="2">
  <advance width="679.01176"/>
  <unicode hex="052E"/>
  <outline>
    <contour>
      <point x="610" y="72" type="line"/>
      <point x="445" y="72" type="line"/>
      <point x="435" y="0" type="line"/>
      <point x="600" y="0" type="line"/>
    </contour>
    <contour>
      <point x="601" y="7" type="line"/>
      <point x="531" y="7" type="line"/>
      <point x="518" y="-151" type="line"/>
      <point x="579" y="-151" type="line"/>
    </contour>
    <component base="uni041B"/>
  </outline>
</glyph>
<glyph name="uni052F" format="2">
  <advance width="562.25882"/>
  <unicode hex="052F"/>
  <outline>
    <contour>
      <point x="519" y="68" type="line"/>
      <point x="400" y="68" type="line"/>
      <point x="391" y="0" type="line"/>
      <point x="445" y="0" type="line"/>
      <point x="433" y="-144" type="line"/>
      <point x="489" y="-144" type="line"/>
    </contour>
    <component base="uni043B"/>
  </outline>
</glyph>
<glyph name="figuredash" format="2">
  <advance width="517.90588"/>
  <unicode hex="2012"/>
  <outline>
    <contour>
      <point x="454" y="285" type="line"/>
      <point x="77" y="285" type="line"/>
      <point x="67" y="220" type="line"/>
      <point x="444" y="220" type="line"/>
    </contour>
  </outline>
</glyph>
<glyph name="endash" format="2">
  <advance width="591.09412"/>
  <unicode hex="2013"/>
  <outline>
    <contour>
      <point x="518" y="285" type="line"/>
      <point x="70" y="285" type="line"/>
      <point x="61" y="220" type="line"/>
      <point x="509" y="220" type="line"/>
    </contour>
  </outline>
</glyph>
<glyph name="fraction" format="2">
  <advance width="160"/>
  <unicode hex="2044"/>
  <outline>
    <contour>
      <point x="390" y="690" type="line"/>
      <point x="322" y="690" type="line"/>
      <point x="-217" y="0" type="line"/>
      <point x="-149" y="0" type="line"/>
    </contour>
  </outline>
</glyph>
<glyph name="minus" format="2">
  <advance width="585.62353"/>
  <unicode hex="2212"/>
  <outline>
    <contour>
      <point x="517" y="327" type="line"/>
      <point x="79" y="327" type="line"/>
      <point x="69" y="263" type="line"/>
      <point x="507" y="263" type="line"/>
    </contour>
  </outline>
</glyph>
<glyph name="uni2215" format="2">
  <advance width="504.17647"/>
  <unicode hex="2215"/>
  <outline>
    <contour>
      <point x="552" y="695" type="line"/>
      <point x="481" y="695" type="line"/>
      <point x="-27" y="-61" type="line"/>
      <point x="43" y="-61" type="line"/>
    </contour>
  </outline>
</glyph>
<glyph name="radical" format="2">
  <advance width="562.58824"/>
  <unicode hex="221A"/>
  <outline>
    <contour>
      <point x="241" y="6" type="curve" smooth="yes"/>
      <point x="622" y="876" type="line"/>
      <point x="548" y="876" type="line"/>
      <point x="193" y="58" type="line"/>
      <point x="180" y="58" type="line"/>
      <point x="128" y="487" type="line"/>
      <point x="58" y="487" type="line"/>
      <point x="118" y="10" type="line" smooth="yes"/>
      <point x="117" y="5"/>
      <point x="125" y="0"/>
      <point x="131" y="0" type="curve" smooth="yes"/>
      <point x="230" y="0" type="line" smooth="yes"/>
      <point x="236" y="0"/>
      <point x="239" y="1"/>
    </contour>
  </outline>
</glyph>
<glyph name="u1FA9D" format="2">
  <advance width="245.81176"/>
  <unicode hex="1FA9D"/>
  <anchor x="126" y="544" name="_top"/>
  <outline>
    <contour>
      <point x="120" y="594" type="curve"/>
      <point x="123" y="552" type="line"/>
      <point x="206" y="563"/>
      <point x="256" y="619"/>
      <point x="256" y="685" type="curve" smooth="yes"/>
      <point x="256" y="747"/>
      <point x="202" y="772"/>
      <point x="127" y="749" type="curve"/>
      <point x="128" y="701" type="line"/>
      <point x="172" y="714"/>
      <point x="196" y="706"/>
      <point x="196" y="674" type="curve" smooth="yes"/>
      <point x="196" y="637"/>
      <point x="175" y="605"/>
    </contour>
  </outline>
</glyph>
<glyph name="macrongrave" format="2">
  <advance width="400"/>
  <anchor x="247" y="567" name="_top"/>
  <outline>
    <contour>
      <point x="397" y="652" type="line"/>
      <point x="118" y="652" type="line"/>
      <point x="109" y="589" type="line"/>
      <point x="388" y="589" type="line"/>
    </contour>
    <contour>
      <point x="198" y="827" type="line"/>
      <point x="150" y="777" type="line"/>
      <point x="272" y="681" type="line"/>
      <point x="304" y="712" type="line"/>
    </contour>
  </outline>
</glyph>
<glyph name="uni0306.cy" format="2">
  <advance width="0"/>
  <anchor x="330" y="487" name="_top"/>
  <outline>
    <contour>
      <point x="500" y="635" type="curve"/>
      <point x="435" y="635" type="line"/>
      <point x="426" y="577"/>
      <point x="391" y="545"/>
      <point x="338" y="545" type="curve" smooth="yes"/>
      <point x="283" y="545"/>
      <point x="256" y="577"/>
      <point x="265" y="635" type="curve"/>
      <point x="200" y="635" type="line"/>
      <point x="184" y="557"/>
      <point x="234" y="497"/>
      <point x="331" y="497" type="curve" smooth="yes"/>
      <point x="428" y="497"/>
      <point x="494" y="557"/>
    </contour>
  </outline>
</glyph>
<glyph name="uni030C.alt" format="2">
  <advance width="0"/>
  <anchor x="54" y="655" name="_topright"/>
  <outline>
    <contour>
      <point x="79" y="712" type="curve" smooth="yes"/>
      <point x="57" y="712" type="line" smooth="yes"/>
      <point x="34" y="712"/>
      <point x="28" y="706"/>
      <point x="25" y="687" type="curve" smooth="yes"/>
      <point x="17" y="633" type="line" smooth="yes"/>
      <point x="14" y="619"/>
      <point x="23" y="608"/>
      <point x="39" y="610" type="curve"/>
      <point x="33" y="572"/>
      <point x="19" y="536"/>
      <point x="7" y="505" type="curve"/>
      <point x="43" y="493" type="line"/>
      <point x="64" y="530"/>
      <point x="87" y="584"/>
      <point x="93" y="626" type="curve" smooth="yes"/>
      <point x="101" y="684" type="line" smooth="yes"/>
      <point x="103" y="704"/>
      <point x="98" y="712"/>
    </contour>
  </outline>
</glyph>
